<svg width="1024" height="1024" viewBox="0 0 1024 1024" fill="none" xmlns="http://www.w3.org/2000/svg">
<path d="M960 95.8878L703.776 95.8888V32.1128C703.776 14.4328 689.456 0.112793 671.776 0.112793C654.096 0.112793 639.776 14.4328 639.776 32.1128V95.8728H383.776V32.1128C383.776 14.4328 369.456 0.112793 351.776 0.112793C334.096 0.112793 319.776 14.4328 319.776 32.1128V95.8728H64C28.656 95.8728 0 124.529 0 159.873V959.873C0 995.216 28.656 1023.87 64 1023.87H960C995.344 1023.87 1024 995.216 1024 959.873V159.873C1024 124.544 995.344 95.8878 960 95.8878V95.8878ZM960 959.873H64V159.873H319.776V192.113C319.776 209.792 334.096 224.113 351.776 224.113C369.456 224.113 383.776 209.792 383.776 192.113V159.889H639.776V192.129C639.776 209.809 654.096 224.129 671.776 224.129C689.456 224.129 703.776 209.809 703.776 192.129V159.889H960V959.873ZM736 511.888H800C817.664 511.888 832 497.552 832 479.888V415.888C832 398.224 817.664 383.888 800 383.888H736C718.336 383.888 704 398.224 704 415.888V479.888C704 497.552 718.336 511.888 736 511.888ZM736 767.872H800C817.664 767.872 832 753.552 832 735.872V671.872C832 654.208 817.664 639.872 800 639.872H736C718.336 639.872 704 654.208 704 671.872V735.872C704 753.568 718.336 767.872 736 767.872ZM544 639.872H480C462.336 639.872 448 654.208 448 671.872V735.872C448 753.552 462.336 767.872 480 767.872H544C561.664 767.872 576 753.552 576 735.872V671.872C576 654.224 561.664 639.872 544 639.872ZM544 383.888H480C462.336 383.888 448 398.224 448 415.888V479.888C448 497.552 462.336 511.888 480 511.888H544C561.664 511.888 576 497.552 576 479.888V415.888C576 398.208 561.664 383.888 544 383.888ZM288 383.888H224C206.336 383.888 192 398.224 192 415.888V479.888C192 497.552 206.336 511.888 224 511.888H288C305.664 511.888 320 497.552 320 479.888V415.888C320 398.208 305.664 383.888 288 383.888ZM288 639.872H224C206.336 639.872 192 654.208 192 671.872V735.872C192 753.552 206.336 767.872 224 767.872H288C305.664 767.872 320 753.552 320 735.872V671.872C320 654.224 305.664 639.872 288 639.872Z" fill="white"/>
</svg>
